<svg xmlns="http://www.w3.org/2000/svg" class="svg-logo" width="2400" height="2400" viewBox="0 0 630 430" style="height: auto;"><rect width="630" height="630" y="-100" rx="0" ry="0" fill="transparent" fill-opacity="0"></rect><g data-element="wrapper" transform="translate(47.25002593993837 32.249999999997954) scale(0.8500000000000096)"><g ><g data-element="icon" transform="scale(0.2) translate(2291.7747181652503 729.8612080474461)"><path id="color_x5F_1" d="M590.717,336.654v56.06c0,81.33-65.928,147.258-147.258,147.258H247.985    c-81.327,0-147.257-65.928-147.257-147.258v-9.385c14.134-11.193,24.169-27.343,27.373-45.868l22.597-0.051    c9.12-0.021,16.502-7.431,16.481-16.554c-0.021-9.108-7.409-16.48-16.517-16.48c-0.011,0-0.022,0-0.039,0l-24.189,0.054    c-4.324-15.419-13.493-28.777-25.705-38.452v-63.417c0-81.328,65.93-147.257,147.257-147.257h195.474    c81.33,0,147.258,65.929,147.258,147.257l-0.002,101.059c0,0-0.002,0-0.005,0h-0.005l-75.777,0.047    c-3.128,0-5.902-2.225-6.602-5.301c-15.241-67.49-26.512-108.471-54.393-108.471c-29.129,0-36.013,33.362-52.643,113.957    l-5.519,26.565c-10.381,49.517-17.937,77.121-23.361,92.165c-4.634-15.174-11.318-43.526-20.206-96.478    c-21.279-126.754-30.927-154.119-54.326-154.119c-22.197,0-31.892,28.71-56.108,117.537l-4.51,14.69l-26.757,0.048    c-9.117,0.018-16.5,7.424-16.483,16.549c0.015,9.11,7.409,16.485,16.518,16.485c0.009,0,0.021,0,0.031,0l26.755-0.048    c15.088-0.031,28.413-10.195,32.402-24.713l3.914-14.317c5.953-21.824,15.576-57.117,23.529-78.593    c8.581,29.288,17.889,84.745,22.454,111.957c19.866,118.322,31.503,137.501,51.63,137.501c0.019,0,0.046,0,0.062,0    c22.886-0.043,35.089-28.39,56.798-131.878l5.532-26.674c7.248-35.123,14.16-68.625,20.249-82.691    c8.469,16.954,18.189,59.995,22.212,77.809c4.135,18.286,20.093,31.055,38.823,31.055c0.007,0,0.022,0,0.022,0L590.717,336.654z     M54.439,274.769c-27.548,0-49.88,22.331-49.88,49.88c0,27.548,22.333,49.878,49.88,49.878c27.548,0,49.879-22.33,49.879-49.878    C104.319,297.1,81.988,274.769,54.439,274.769z" fill="#ffffff" fill-opacity="1"></path></g><path d="M96.03 195.45L96.03 215.16Q96.03 218.62 94.85 221.47Q93.66 224.32 91.42 226.33Q89.18 228.35 85.98 229.44Q82.78 230.52 78.75 230.52L78.75 230.52Q74.72 230.52 71.52 229.44Q68.32 228.35 66.08 226.33Q63.84 224.32 62.65 221.47Q61.47 218.62 61.47 215.16L61.47 215.16L61.47 190.72Q62.17 190.59 63.71 190.36Q65.25 190.14 66.65 190.14L66.65 190.14Q68.13 190.14 69.25 190.36Q70.37 190.59 71.13 191.16Q71.90 191.74 72.29 192.76Q72.67 193.79 72.67 195.45L72.67 195.45L72.67 214.97Q72.67 218.04 74.37 219.77Q76.06 221.50 78.75 221.50L78.75 221.50Q81.50 221.50 83.17 219.77Q84.83 218.04 84.83 214.97L84.83 214.97L84.83 190.72Q85.53 190.59 87.07 190.36Q88.61 190.14 90.01 190.14L90.01 190.14Q91.49 190.14 92.61 190.36Q93.73 190.59 94.49 191.16Q95.26 191.74 95.65 192.76Q96.03 193.79 96.03 195.45L96.03 195.45ZM117.85 214.97L115.17 214.08Q112.35 213.12 110.05 212.12Q107.74 211.13 106.08 209.72Q104.41 208.32 103.49 206.36Q102.56 204.41 102.56 201.60L102.56 201.60Q102.56 196.16 106.75 192.89Q110.94 189.63 118.49 189.63L118.49 189.63Q121.25 189.63 123.61 190.01Q125.98 190.40 127.68 191.20Q129.37 192.00 130.33 193.24Q131.29 194.49 131.29 196.16L131.29 196.16Q131.29 197.82 130.53 199.00Q129.76 200.19 128.67 201.02L128.67 201.02Q127.26 200.12 124.89 199.45Q122.53 198.78 119.71 198.78L119.71 198.78Q116.83 198.78 115.49 199.58Q114.14 200.38 114.14 201.60L114.14 201.60Q114.14 202.56 114.97 203.16Q115.81 203.77 117.47 204.28L117.47 204.28L120.86 205.37Q126.88 207.29 130.11 210.27Q133.34 213.24 133.34 218.36L133.34 218.36Q133.34 223.80 129.05 227.16Q124.77 230.52 116.45 230.52L116.45 230.52Q113.50 230.52 110.97 230.04Q108.45 229.56 106.56 228.64Q104.67 227.71 103.61 226.33Q102.56 224.96 102.56 223.16L102.56 223.16Q102.56 221.31 103.65 220.00Q104.73 218.68 106.01 217.98L106.01 217.98Q107.81 219.39 110.40 220.41Q112.99 221.44 116.06 221.44L116.06 221.44Q119.20 221.44 120.48 220.48Q121.76 219.52 121.76 218.24L121.76 218.24Q121.76 216.96 120.73 216.28Q119.71 215.61 117.85 214.97L117.85 214.97ZM146.40 199.68L136.80 199.68Q136.35 198.97 135.97 197.76Q135.58 196.54 135.58 195.20L135.58 195.20Q135.58 192.70 136.70 191.61Q137.82 190.52 139.61 190.52L139.61 190.52L167.52 190.52Q167.97 191.23 168.35 192.44Q168.73 193.66 168.73 195.00L168.73 195.00Q168.73 197.50 167.61 198.59Q166.49 199.68 164.70 199.68L164.70 199.68L157.60 199.68L157.60 229.24Q156.89 229.44 155.39 229.63Q153.89 229.82 152.41 229.82L152.41 229.82Q150.94 229.82 149.82 229.60Q148.70 229.37 147.93 228.80Q147.17 228.22 146.78 227.20Q146.40 226.17 146.40 224.51L146.40 224.51L146.40 199.68ZM208.86 195.45L208.86 229.24Q208.16 229.44 206.65 229.63Q205.15 229.82 203.68 229.82L203.68 229.82Q202.21 229.82 201.09 229.60Q199.97 229.37 199.20 228.80Q198.43 228.22 198.05 227.20Q197.66 226.17 197.66 224.51L197.66 224.51L197.66 214.52L185.37 214.52L185.37 229.24Q184.67 229.44 183.17 229.63Q181.66 229.82 180.19 229.82L180.19 229.82Q178.72 229.82 177.60 229.60Q176.48 229.37 175.71 228.80Q174.94 228.22 174.56 227.20Q174.17 226.17 174.17 224.51L174.17 224.51L174.17 190.72Q174.88 190.59 176.41 190.36Q177.95 190.14 179.36 190.14L179.36 190.14Q180.83 190.14 181.95 190.36Q183.07 190.59 183.84 191.16Q184.61 191.74 184.99 192.76Q185.37 193.79 185.37 195.45L185.37 195.45L185.37 205.69L197.66 205.69L197.66 190.72Q198.37 190.59 199.90 190.36Q201.44 190.14 202.85 190.14L202.85 190.14Q204.32 190.14 205.44 190.36Q206.56 190.59 207.33 191.16Q208.09 191.74 208.48 192.76Q208.86 193.79 208.86 195.45L208.86 195.45ZM228.06 213.69L228.06 221.50Q228.96 221.76 230.37 221.85Q231.77 221.95 233.05 221.95L233.05 221.95Q235.61 221.95 237.31 220.89Q239.01 219.84 239.01 217.60L239.01 217.60Q239.01 215.48 237.60 214.59Q236.19 213.69 233.31 213.69L233.31 213.69L228.06 213.69ZM228.06 198.33L228.06 205.88L232.73 205.88Q235.49 205.88 236.73 204.86Q237.98 203.84 237.98 201.85L237.98 201.85Q237.98 200.12 236.54 199.10Q235.10 198.08 232.22 198.08L232.22 198.08Q231.26 198.08 230.01 198.14Q228.77 198.20 228.06 198.33L228.06 198.33ZM232.22 230.52L232.22 230.52Q231.13 230.52 229.66 230.46Q228.19 230.40 226.62 230.20Q225.05 230.01 223.52 229.72Q221.98 229.44 220.70 228.92L220.70 228.92Q217.18 227.58 217.18 224.25L217.18 224.25L217.18 194.36Q217.18 193.02 217.92 192.28Q218.65 191.55 219.93 191.10L219.93 191.10Q222.11 190.33 225.37 189.98Q228.64 189.63 232.09 189.63L232.09 189.63Q240.29 189.63 244.70 192.38Q249.12 195.13 249.12 200.89L249.12 200.89Q249.12 203.77 247.45 205.85Q245.79 207.93 242.97 208.89L242.97 208.89Q246.17 209.79 248.32 212.16Q250.46 214.52 250.46 218.11L250.46 218.11Q250.46 224.44 245.76 227.48Q241.05 230.52 232.22 230.52ZM296.41 219.96L296.41 219.96Q295.58 220.67 294.27 221.08Q292.96 221.50 291.23 221.50L291.23 221.50Q288.93 221.50 287.42 220.92Q285.92 220.35 285.47 218.94L285.47 218.94Q283.68 213.31 282.53 209.82Q281.37 206.33 280.73 203.71L280.73 203.71L280.41 203.71Q280.22 207.48 280.13 210.59Q280.03 213.69 280.00 216.64Q279.97 219.58 279.87 222.59Q279.77 225.60 279.58 229.24L279.58 229.24Q278.75 229.56 277.41 229.79Q276.06 230.01 274.72 230.01L274.72 230.01Q271.90 230.01 270.33 229.12Q268.77 228.22 268.77 225.85L268.77 225.85L270.62 193.21Q271.13 192.38 272.86 191.42Q274.59 190.46 277.73 190.46L277.73 190.46Q281.12 190.46 283.04 191.52Q284.96 192.57 285.85 194.94L285.85 194.94Q286.43 196.48 287.10 198.46Q287.77 200.44 288.45 202.56Q289.12 204.67 289.76 206.75Q290.40 208.83 290.91 210.49L290.91 210.49L291.23 210.49Q292.77 205.12 294.30 200.09Q295.84 195.07 297.12 191.68L297.12 191.68Q298.08 191.16 299.58 190.81Q301.09 190.46 302.94 190.46L302.94 190.46Q306.08 190.46 308.06 191.39Q310.05 192.32 310.37 194.04L310.37 194.04Q310.62 195.32 310.91 197.98Q311.20 200.64 311.52 203.96Q311.84 207.29 312.16 211.00Q312.48 214.72 312.77 218.14Q313.05 221.56 313.25 224.41Q313.44 227.26 313.50 228.80L313.50 228.80Q312.41 229.44 311.23 229.72Q310.05 230.01 308.19 230.01L308.19 230.01Q305.76 230.01 304.09 229.18Q302.43 228.35 302.30 225.92L302.30 225.92Q301.92 218.94 301.82 213.37Q301.73 207.80 301.53 204.03L301.53 204.03L301.21 204.03Q300.57 206.52 299.36 210.30Q298.14 214.08 296.41 219.96ZM335.97 230.52L335.97 230.52Q332.19 230.52 328.96 229.47Q325.73 228.41 323.33 226.30Q320.93 224.19 319.55 220.99Q318.17 217.79 318.17 213.50L318.17 213.50Q318.17 209.28 319.55 206.24Q320.93 203.20 323.17 201.24Q325.41 199.29 328.29 198.36Q331.17 197.44 334.17 197.44L334.17 197.44Q337.57 197.44 340.35 198.46Q343.13 199.48 345.15 201.28Q347.17 203.07 348.29 205.56Q349.41 208.06 349.41 211.00L349.41 211.00Q349.41 213.18 348.19 214.33Q346.97 215.48 344.80 215.80L344.80 215.80L328.99 218.17Q329.69 220.28 331.87 221.34Q334.05 222.40 336.86 222.40L336.86 222.40Q339.49 222.40 341.82 221.72Q344.16 221.05 345.63 220.16L345.63 220.16Q346.65 220.80 347.36 221.95Q348.06 223.10 348.06 224.38L348.06 224.38Q348.06 227.26 345.37 228.67L345.37 228.67Q343.33 229.76 340.77 230.14Q338.21 230.52 335.97 230.52ZM334.17 205.37L334.17 205.37Q332.64 205.37 331.52 205.88Q330.40 206.40 329.69 207.20Q328.99 208.00 328.64 208.99Q328.29 209.98 328.22 211.00L328.22 211.00L339.17 209.21Q338.97 207.93 337.76 206.65Q336.54 205.37 334.17 205.37ZM353.31 213.95L353.31 213.95Q353.31 209.72 354.59 206.62Q355.87 203.52 358.14 201.47Q360.41 199.42 363.45 198.43Q366.49 197.44 370.01 197.44L370.01 197.44Q371.29 197.44 372.51 197.66Q373.73 197.88 374.49 198.20L374.49 198.20L374.49 187.84Q375.13 187.64 376.54 187.42Q377.95 187.20 379.42 187.20L379.42 187.20Q380.83 187.20 381.95 187.39Q383.07 187.58 383.84 188.16Q384.61 188.73 384.99 189.72Q385.37 190.72 385.37 192.32L385.37 192.32L385.37 222.65Q385.37 225.66 382.56 227.45L382.56 227.45Q380.70 228.67 377.76 229.60Q374.81 230.52 370.97 230.52L370.97 230.52Q366.81 230.52 363.52 229.37Q360.22 228.22 357.95 226.04Q355.68 223.87 354.49 220.83Q353.31 217.79 353.31 213.95ZM371.49 205.95L371.49 205.95Q368.03 205.95 366.17 207.93Q364.32 209.92 364.32 213.95L364.32 213.95Q364.32 217.92 366.05 219.93Q367.77 221.95 371.04 221.95L371.04 221.95Q372.19 221.95 373.12 221.60Q374.05 221.24 374.56 220.80L374.56 220.80L374.56 206.72Q373.28 205.95 371.49 205.95ZM391.90 189.76L391.90 189.76Q391.90 187.32 393.53 185.66Q395.17 184.00 397.85 184.00L397.85 184.00Q400.54 184.00 402.17 185.66Q403.81 187.32 403.81 189.76L403.81 189.76Q403.81 192.19 402.17 193.85Q400.54 195.52 397.85 195.52L397.85 195.52Q395.17 195.52 393.53 193.85Q391.90 192.19 391.90 189.76ZM403.29 203.39L403.29 229.44Q402.59 229.56 401.21 229.79Q399.84 230.01 398.43 230.01L398.43 230.01Q397.02 230.01 395.90 229.82Q394.78 229.63 394.01 229.05Q393.25 228.48 392.83 227.48Q392.41 226.49 392.41 224.89L392.41 224.89L392.41 198.84Q393.12 198.72 394.49 198.49Q395.87 198.27 397.28 198.27L397.28 198.27Q398.69 198.27 399.81 198.46Q400.93 198.65 401.69 199.23Q402.46 199.80 402.88 200.80Q403.29 201.79 403.29 203.39L403.29 203.39ZM427.74 206.01L427.74 206.01Q426.14 206.01 424.70 206.52Q423.26 207.04 422.21 208.03Q421.15 209.02 420.51 210.49Q419.87 211.96 419.87 213.95L419.87 213.95Q419.87 217.92 422.14 219.90Q424.41 221.88 427.68 221.88L427.68 221.88Q429.60 221.88 431.01 221.44Q432.41 220.99 433.50 220.48L433.50 220.48Q434.78 221.37 435.42 222.43Q436.06 223.48 436.06 224.96L436.06 224.96Q436.06 227.58 433.57 229.02Q431.07 230.46 426.65 230.46L426.65 230.46Q422.62 230.46 419.36 229.28Q416.09 228.09 413.76 225.95Q411.42 223.80 410.14 220.80Q408.86 217.79 408.86 214.14L408.86 214.14Q408.86 209.92 410.24 206.75Q411.61 203.58 413.98 201.53Q416.35 199.48 419.45 198.46Q422.56 197.44 426.01 197.44L426.01 197.44Q430.62 197.44 433.12 199.10Q435.61 200.76 435.61 203.39L435.61 203.39Q435.61 204.60 435.04 205.66Q434.46 206.72 433.69 207.48L433.69 207.48Q432.61 206.97 431.07 206.49Q429.53 206.01 427.74 206.01Z" data-element="company-name" data-text-path="" data-text="USTHB Medic" data-font-family="Baloo Bhai" fill="#ffffff" fill-opacity="1"></path></g></g></svg>